<?xml version="1.0" encoding="UTF-8" standalone="no"?>
<!-- Created with Inkscape (http://www.inkscape.org/) -->

<svg
   xmlns:dc="http://purl.org/dc/elements/1.1/"
   xmlns:cc="http://creativecommons.org/ns#"
   xmlns:rdf="http://www.w3.org/1999/02/22-rdf-syntax-ns#"
   xmlns:svg="http://www.w3.org/2000/svg"
   xmlns="http://www.w3.org/2000/svg"
   xmlns:sodipodi="http://sodipodi.sourceforge.net/DTD/sodipodi-0.dtd"
   xmlns:inkscape="http://www.inkscape.org/namespaces/inkscape"
   width="744.09448819"
   height="1052.3622047"
   id="svg2"
   version="1.1"
   inkscape:version="0.48.2 r9819"
   sodipodi:docname="sacredheart.svg">
  <defs
     id="defs4" />
  <sodipodi:namedview
     id="base"
     pagecolor="#ffffff"
     bordercolor="#666666"
     borderopacity="1.0"
     inkscape:pageopacity="0.0"
     inkscape:pageshadow="2"
     inkscape:zoom="0.7"
     inkscape:cx="443.53007"
     inkscape:cy="586.22851"
     inkscape:document-units="px"
     inkscape:current-layer="layer1"
     showgrid="false"
     inkscape:window-width="1920"
     inkscape:window-height="1018"
     inkscape:window-x="-8"
     inkscape:window-y="-8"
     inkscape:window-maximized="1"
     showguides="true"
     inkscape:guide-bbox="true" />
  <metadata
     id="metadata7">
    <rdf:RDF>
      <cc:Work
         rdf:about="">
        <dc:format>image/svg+xml</dc:format>
        <dc:type
           rdf:resource="http://purl.org/dc/dcmitype/StillImage" />
        <dc:title></dc:title>
      </cc:Work>
    </rdf:RDF>
  </metadata>
  <g
     inkscape:label="Layer 1"
     inkscape:groupmode="layer"
     id="layer1"
     style="display:inline">
    <g
       id="g4167"
       transform="translate(-144.28571,10)"
       inkscape:export-filename="C:\github\lucisvia\css\img\sacredheart_large.png"
       inkscape:export-xdpi="340.89777"
       inkscape:export-ydpi="340.89777">
      <path
         inkscape:connector-curvature="0"
         id="rect4155"
         d="m 527.8297,232.84384 c -0.86211,0 -1.53125,0.70039 -1.53125,1.5625 l 0,16.96875 -12.96875,0 c -0.86211,0 -1.5625,0.70039 -1.5625,1.5625 l 0,6.46875 c 0,0.86211 0.70039,1.5625 1.5625,1.5625 l 12.96875,0 0,42.71875 c 0,0.86211 0.66914,1.5625 1.53125,1.5625 l 7.5625,0 c 0.86211,0 1.53125,-0.70039 1.53125,-1.5625 l 0,-42.71875 12.9375,0 c 0.86211,0 1.5625,-0.70039 1.5625,-1.5625 l 0,-6.46875 c 0,-0.86211 -0.70039,-1.5625 -1.5625,-1.5625 l -12.9375,0 0,-16.96875 c 0,-0.86211 -0.66914,-1.5625 -1.53125,-1.5625 l -7.5625,0 z"
         style="fill:#798d98;fill-opacity:1" />
      <path
         sodipodi:nodetypes="scscscscccccscs"
         inkscape:connector-curvature="0"
         id="path4152"
         d="m 574.1422,308.10196 c -0.6631,36.17974 -25.92621,40.00001 -41.25001,96.07144 -14.25237,-56.78572 -42.496,-57.36495 -43.03571,-88.92858 -0.55352,-32.37065 4.50808,-25.52798 4.50808,-25.52798 0,0 5.82983,25.11676 11.68078,32.58542 0,0 -2.78767,-24.20029 3.27542,-24.55743 0,0 5.04349,24.29522 9.25045,24.96427 4.20695,0.66906 5.83838,-19.64989 5.83838,-19.64989 0,0 2.16858,17.23683 7.6819,20.88613 1.14734,-0.87981 6.14331,-19.65423 6.14331,-19.65423 0,0 3.68987,14.09098 6.6893,20.0134 5.5479,-7.88313 8.52182,-27.27309 8.52182,-27.27309 4.21159,7.63219 5.30408,27.33297 6.28373,25.272 3.51437,-7.39345 8.22239,-32.42009 8.22239,-32.42009 2.95847,3.49229 6.41156,6.13865 6.19016,18.21863 z"
         style="opacity:0.96999996;fill:#fdc44f;fill-opacity:1" />
      <path
         inkscape:connector-curvature="0"
         id="path4039"
         d="m 483.75446,374.64286 c -30.78054,-0.0768 -56.23444,20.30627 -55.81251,54.09375 0.10232,8.19306 0.81852,15.80831 2.34375,23.15625 l 5.5,0 2.53125,-4.875 4.1875,-8.0625 4.1875,8.0625 2.53125,4.875 11.4375,0 2.46875,-4.71875 4.1875,-8.03125 4.18751,8.03125 2.46875,4.71875 11.9375,0 2.75,-5.25 4.1875,-8.03125 4.1875,8.03125 2.75,5.25 12.75,0 2.90625,-5.59375 4.1875,-8.03125 4.21875,8.03125 2.90625,5.59375 10.21875,0 3.125,-5.96875 4.1875,-8.03125 4.1875,8.03125 3.125,5.96875 12,0 2.9375,-5.59375 4.1875,-8.03125 4.1875,8.03125 2.90625,5.59375 10.78125,0 3.28125,-6.3125 4.1875,-8.03125 4.1875,8.03125 3.28125,6.3125 10.78125,0 2.90625,-5.59375 4.21875,-8.03125 4.1875,8.03125 2.90625,5.59375 7.71875,0 c 1.84575,-7.63369 2.82639,-15.63629 2.9375,-24.25 0.76095,-58.98957 -58.44239,-63.60268 -105.625,-35.03125 -16.09625,-12.27678 -33.68936,-17.92852 -49.8125,-17.96875 z m -52.25001,82.5625 c 8.63207,32.0397 35.02255,60.03499 101.71876,109.40627 56.14675,-43.1667 87.55036,-70.85702 99.84375,-104.15627 l 0,-0.0312 -3.1875,-5.21875 -12.625,0 -3.375,6.8125 -4.0625,8.09375 -4.34375,-7.9375 -3.78125,-6.96875 -9.8125,0 -3.53125,7.0625 -4.03125,8.09375 -4.34375,-7.9375 -3.9375,-7.21875 -9.78125,0 -3.65625,7.3125 -4.03125,8.09375 -4.34375,-7.9375 -4.0625,-7.46875 -11.0625,0 -3.53125,7.0625 -4.03125,8.09375 -4.34375,-7.9375 -3.9375,-7.21875 -9.78125,0 -3.40625,6.8125 -4.03125,8.09375 -4.34375,-7.9375 -3.8125,-6.96875 -10.15625,0 -3.40625,6.8125 -4.0625,8.09375 -4.3125,-7.9375 -3.8125,-6.96875 -10.43751,0 -3.71875,6.9375 -4.28125,7.96875 -4.09375,-8.0625 -3.46875,-6.84375 -14.625,0 z"
         style="fill:#a6513b;fill-opacity:1" />
      <path
         sodipodi:nodetypes="sssss"
         inkscape:connector-curvature="0"
         id="path4160"
         d="m 530,555.93361 c 0,16.17406 0.39499,31.07143 -5.13283,31.07143 -5.52783,0 1.2832,-14.18308 1.2832,-30.35714 0,-16.17405 -0.65163,-14.28572 2.05314,-14.28572 1.6782,0 1.79649,-2.60262 1.79649,13.57143 z"
         style="fill:#a6513b;fill-opacity:1" />
      <path
         style="fill:#a6513b;fill-opacity:1"
         d="m 541.72659,548.2999 c -2.73047,15.94192 -2.0633,30.55879 3.38518,31.49198 5.44849,0.9332 -2.44186,-14.19614 0.28861,-30.13806 2.73047,-15.9419 3.05396,-13.97067 0.38801,-14.42728 -1.65411,-0.28331 -1.33133,-2.86855 -4.0618,13.07336 z"
         id="path4163"
         inkscape:connector-curvature="0"
         sodipodi:nodetypes="sssss" />
      <path
         style="fill:#a6513b;fill-opacity:1"
         d="m 536.07143,563.79075 c 2.5,16.17406 2.1807,32.85714 -3.34712,32.85714 -5.52783,0 1.99749,-15.96879 -0.50251,-32.14285 -2.47066,-15.98423 -0.65163,-14.28572 2.05314,-14.28572 1.6782,0 -0.67417,-2.4128 1.79649,13.57143 z"
         id="path4165"
         inkscape:connector-curvature="0"
         sodipodi:nodetypes="sssss" />
    </g>
  </g>
</svg>
